<?xml version="1.0" standalone="no"?>
<!DOCTYPE svg PUBLIC "-//W3C//DTD SVG 20010904//EN"
 "http://www.w3.org/TR/2001/REC-SVG-20010904/DTD/svg10.dtd">
<svg version="1.0" xmlns="http://www.w3.org/2000/svg"
 width="300.000000pt" height="300.000000pt" viewBox="0 0 300.000000 300.000000"
 preserveAspectRatio="xMidYMid meet">
<metadata>
Created by potrace 1.11, written by Peter Selinger 2001-2013
</metadata>
<g transform="translate(0.000000,300.000000) scale(0.100000,-0.100000)"
fill="#000000" stroke="none">
<path d="M446 2678 c-49 -13 -112 -75 -125 -125 -7 -26 -11 -372 -11 -1061 0
-900 2 -1027 15 -1060 20 -47 50 -79 97 -103 36 -18 75 -19 1078 -19 1013 0
1042 1 1079 20 48 24 87 70 101 118 8 26 10 355 8 1073 l-3 1035 -27 41 c-15
22 -44 51 -65 64 l-38 24 -1035 2 c-689 1 -1048 -2 -1074 -9z m1884 -178 c0
-66 -21 -192 -42 -255 -59 -171 -152 -300 -298 -412 -84 -64 -150 -101 -285
-158 -486 -206 -838 -528 -954 -873 -24 -70 -51 -225 -51 -297 l-1 -50 -24 47
c-37 70 -91 223 -112 313 -13 59 -18 118 -17 225 1 128 4 156 28 235 73 241
233 418 507 564 117 62 180 87 427 171 251 86 395 158 547 275 79 61 208 189
240 239 22 33 35 25 35 -24z m115 -797 c-28 -200 -121 -354 -256 -427 -66 -36
-189 -66 -271 -66 -38 0 -140 12 -226 26 -224 37 -365 29 -514 -31 -31 -12
-20 19 20 56 59 56 108 88 187 125 93 43 177 60 335 69 176 9 263 23 407 66
136 40 245 113 288 193 27 50 39 45 30 -11z m-25 -497 c0 -5 -146 -101 -225
-148 -164 -97 -342 -176 -475 -210 -95 -24 -229 -26 -379 -4 -166 24 -308 31
-358 17 -23 -6 -56 -23 -73 -38 -17 -14 -33 -23 -36 -20 -14 14 64 137 125
197 134 133 301 181 516 147 237 -37 405 -38 610 -3 137 24 253 51 263 61 6 6
32 7 32 1z m-1203 -448 c114 -23 292 -30 410 -16 58 7 62 6 52 -10 -62 -99
-405 -185 -550 -137 -67 23 -207 22 -286 -1 -30 -9 -58 -13 -61 -9 -10 11 100
108 160 140 29 16 78 35 108 41 30 7 56 13 57 13 1 1 51 -9 110 -21z"/>
</g>
</svg>
